<?xml version="1.0" encoding="utf-8"?>
<!-- Generator: Adobe Illustrator 19.0.0, SVG Export Plug-In . SVG Version: 6.00 Build 0)  -->
<svg version="1.1" id="Layer_1" xmlns="http://www.w3.org/2000/svg" xmlns:xlink="http://www.w3.org/1999/xlink" x="0px" y="0px"
	 viewBox="-13 15 72 72" style="enable-background:new -13 15 72 72;" xml:space="preserve">
<style type="text/css">
	.st0{fill:#007848;}
</style>
<path class="st0" d="M42.5,36.8H26.8c-0.5,0-0.9,0.4-0.9,0.9V42h-4.8v-4.3c0-0.5-0.4-0.9-0.9-0.9H4.4c-0.5,0-0.9,0.4-0.9,0.9v10.5
	c0,0.5,0.4,0.9,0.9,0.9h4.7v0.5H8.3c-0.5,0-0.9,0.4-0.9,0.9s0.4,0.9,0.9,0.9h3.2v5c0,0.6,0.5,1.1,1.1,1.1h7.5v0.8H19
	c-0.6,0-1.1,0.5-1.1,1.1s0.5,1.1,1.1,1.1h3.6v1.9h-2c-0.4,0-0.7,0.3-0.7,0.7v0.2h-8c-0.4,0-0.7,0.3-0.7,0.7c0,0.4,0.3,0.7,0.7,0.7h8
	v0.2c0,0.4,0.3,0.7,0.7,0.7h5.5c0.4,0,0.7-0.3,0.7-0.7v-0.2h8c0.4,0,0.7-0.3,0.7-0.7c0-0.4-0.3-0.7-0.7-0.7h-8v-0.2
	c0-0.4-0.3-0.7-0.7-0.7h-2v-1.9h3.6c0.6,0,1.1-0.5,1.1-1.1s-0.5-1.1-1.1-1.1h-1.1v-0.8h7.5c0.6,0,1.1-0.5,1.1-1.1v-5h3.2
	c0.5,0,0.9-0.4,0.9-0.9s-0.4-0.9-0.9-0.9h-0.8v-0.5h4.7c0.5,0,0.9-0.4,0.9-0.9V37.7C43.5,37.2,43,36.8,42.5,36.8z M11.5,43.1v3.5
	H5.3v-7.9h13.8V42h-6.5C12,42,11.5,42.5,11.5,43.1z M23.5,57.9c-0.8,0-1.4-0.6-1.4-1.4c0-0.8,0.6-1.4,1.4-1.4c0.8,0,1.4,0.6,1.4,1.4
	C24.9,57.3,24.2,57.9,23.5,57.9z M33.1,54.5H13.8V44.2h19.3V54.5z M41.6,46.6L41.6,46.6h-6.2v-3.5c0-0.6-0.5-1.1-1.1-1.1h-6.5v-3.3
	h13.8V46.6z"/>
</svg>
