<?xml version="1.0" encoding="utf-8"?>
<!-- Generator: Adobe Illustrator 19.0.0, SVG Export Plug-In . SVG Version: 6.00 Build 0)  -->
<svg version="1.1" id="Layer_1" xmlns="http://www.w3.org/2000/svg" xmlns:xlink="http://www.w3.org/1999/xlink" x="0px" y="0px"
	 viewBox="-13 15 72 72" style="enable-background:new -13 15 72 72;" xml:space="preserve">
<style type="text/css">
	.st0{fill:#007848;}
</style>
<path class="st0" d="M40,42v10.5c0,0-2.1,0.4-2.5,0.5s-1.8,0.5-2.7-0.5C33.3,51,28,45.2,28,45.2s-0.9-1-2.4-0.1
	c-1.3,0.8-3.3,1.9-4.2,2.4c-1.6,0.9-2.9-0.5-2.9-1.6c0-0.9,0.5-1.4,1.2-1.9c1.9-1.3,5.9-3.7,7.6-4.7c1-0.6,1.7-0.6,3.1,0.6
	c1.7,1.6,3.2,3,3.2,3s0.5,0.5,1.3,0.3C37,42.7,40,42,40,42L40,42z M18.9,59.8c0.3-0.7,0.2-1.5-0.3-2.1c-0.4-0.5-1.1-0.6-1.7-0.5
	c0.2-0.7,0.1-1.4-0.4-1.9c-0.4-0.5-1.1-0.6-1.7-0.5c0.2-0.7,0.1-1.4-0.4-1.9c-0.7-0.8-1.9-0.7-2.7,0.1c-0.8,0.8-1.3,2.3-0.6,3.2
	c0.7,0.9,1.5,0.3,2.1,0.2c-0.2,0.7-0.7,1.3-0.1,2.2s1.5,0.3,2.1,0.2c-0.2,0.7-0.7,1.3-0.1,2.2c0.6,0.8,1.6,0.4,2.3,0.2
	c-0.3,0.7-0.8,1.5-0.1,2.4c0.7,0.9,2.3,0.5,3.1-0.4c0.8-0.8,0.9-2.1,0.2-2.9C20.3,59.7,19.6,59.6,18.9,59.8L18.9,59.8z M33.4,54.4
	c-5.7-6.2-3-3.3-6.1-6.7c0,0-0.9-1-2.1-0.4c-0.9,0.4-2,1-2.8,1.4c-0.9,0.5-1.6,0.7-1.9,0.7c-1.8,0-3.2-1.6-3.2-3.5
	c0-1.2,0.6-2.3,1.5-2.9c1.3-1,4.2-2.7,4.2-2.7S22,39,20.1,39c-2,0-6,2.9-6,2.9s-1.2,0.8-2.8,0.1l-3.2-1.2v12.1c0,0,0.9,0.3,1.7,0.7
	c0.2-0.6,0.5-1.1,0.9-1.5c1.4-1.4,3.6-1.4,4.8,0c0.4,0.4,0.6,0.9,0.8,1.5c0.5,0.2,0.9,0.5,1.3,0.9s0.6,0.9,0.8,1.5
	c0.5,0.2,0.9,0.5,1.3,0.9c0.4,0.5,0.7,1,0.8,1.6c0.5,0.2,1,0.5,1.4,0.9c0.7,0.8,1,2,0.8,3l0,0c0,0,0.5,0.6,0.7,0.9
	c0.5,0.6,1.4,0.6,2,0c0.5-0.6,0.5-1.6,0-2.2c0,0-2-2.2-1.8-2.4s2.6,2.6,2.7,2.7c0.5,0.6,1.4,0.6,2,0c0.5-0.6,0.5-1.6,0-2.2
	c0,0-0.1-0.1-0.2-0.2c0,0-2.5-2.4-2.3-2.6c0.2-0.2,3.3,2.9,3.3,2.9c0.6,0.5,1.4,0.5,1.9,0c0.5-0.6,0.5-1.4,0.1-2
	c0,0-2.3-2.7-2.2-2.9c0.2-0.2,2.5,2.4,2.5,2.4c0.5,0.6,1.4,0.6,2,0C33.9,56,33.9,55,33.4,54.4L33.4,54.4L33.4,54.4z"/>
</svg>
