<?xml version="1.0" encoding="utf-8"?>
<!-- Generator: Adobe Illustrator 19.0.0, SVG Export Plug-In . SVG Version: 6.00 Build 0)  -->
<svg version="1.1" id="Layer_1" xmlns="http://www.w3.org/2000/svg" xmlns:xlink="http://www.w3.org/1999/xlink" x="0px" y="0px"
	 viewBox="-13 15 72 72" style="enable-background:new -13 15 72 72;" xml:space="preserve">
<style type="text/css">
	.st0{fill:#007848;}
</style>
<path class="st0" d="M38.9,61.2c0,0-0.1-5.7-0.4-6.3c-0.5-0.9-1.7-1.5-4-2.4c-2.2-0.9-2.9-1.7-2.9-3.4c0-1,0.7-0.7,1-2.5
	c0.1-0.8,0.7,0,0.8-1.8c0-0.7-0.3-0.9-0.3-0.9s0.2-1,0.2-1.8c0.1-1-0.5-3.5-3.6-3.5s-3.7,2.6-3.6,3.5c0.1,0.8,0.2,1.8,0.2,1.8
	S26,44.1,26,44.8c0.1,1.8,0.7,1,0.8,1.8c0.3,1.8,1,1.5,1,2.5c0,1.1-0.3,1.9-1.2,2.5c4.9,2.4,5.5,2.9,5.5,5.1v4.5
	C32.1,61.2,38.9,61.2,38.9,61.2z M24.2,53.3c-3-1.2-3.9-2.3-3.9-4.5c0-1.3,0.9-0.9,1.3-3.4c0.2-1,1,0,1.1-2.4c0-0.9-0.4-1.2-0.4-1.2
	s0.2-1.4,0.3-2.4c0.1-1.3-0.7-4.7-4.8-4.7s-4.9,3.4-4.8,4.7c0.1,1.1,0.3,2.4,0.3,2.4S12.9,42,12.9,43c0.2,2.3,1,1.3,1.1,2.4
	c0.4,2.5,1.3,2,1.3,3.4c0,2.2-1,3.3-3.9,4.5c-0.9,0.4-2.5,1-2.5,2.4v5.5h20.9v-4.1C29.8,55.8,27.2,54.6,24.2,53.3L24.2,53.3z"/>
</svg>
