<?xml version="1.0" encoding="utf-8"?>
<!-- Generator: Adobe Illustrator 19.0.0, SVG Export Plug-In . SVG Version: 6.00 Build 0)  -->
<svg version="1.1" id="Layer_1" xmlns="http://www.w3.org/2000/svg" xmlns:xlink="http://www.w3.org/1999/xlink" x="0px" y="0px"
	 viewBox="0 0 453.6 74.1" style="enable-background:new 0 0 453.6 74.1;" xml:space="preserve">
<style type="text/css">
	.st0{fill:#FFFFFF;}
	.st1{fill:#C12049;}
</style>
<g>
	<path class="st0" d="M226.9,51.3c-1.5,0.6-2.8,1-3.9,1c-2.6,0-4.1-1.7-4.5-5.1c-1.5,2.1-2.9,3.5-4,4.2c-1.5,1-3.3,1.6-5.5,1.6
		c-9.5,0-14.3-6.1-14.3-18.2c0-4.2,1.1-7.9,3.4-11c2.5-3.4,5.9-5.1,10-5.1c4.8,0,8.2,2.4,10.1,7.2V0c0.8,0,1.6,0.1,2.5,0.3
		c1-0.2,1.8-0.3,2.6-0.3v46.8c0,0.1,0,0.2,0,0.3c0,0.1,0,0.2,0,0.3c0,1.8,0.5,2.7,1.5,2.7c0.2,0,0.9-0.1,2-0.3V51.3z M217.9,35
		c0-3.3-0.6-6.2-1.9-8.8c-1.6-3.3-3.9-4.9-6.8-4.9c-1.4,0-2.8,0.5-4.1,1.4c-3.6,2.6-5.4,7.7-5.4,15.2c0,3.2,0.6,6,1.9,8.4
		c1.6,3,3.8,4.5,6.8,4.5c1.5,0,3-0.5,4.3-1.5C216.1,46.7,217.9,41.9,217.9,35z"/>
	<path class="st0" d="M244.2,49.9c-3.7,0-6.3-1.6-8-4.9c-0.5-1.1-0.8-2-0.8-2.8c0-1.9,1.5-3.6,4.5-5c2.9-1.2,5.7-2.4,8.5-3.6
		c3-1.6,4.5-3.6,4.5-6c0-2.9-1-5.1-2.9-6.7c-1.9-1.6-4.4-2.4-7.3-2.4c-4.3,0-7.8,1.9-10.6,5.7c-2.4,3.4-3.7,7.3-3.7,11.8
		c0,4.5,1.4,8.4,4.1,11.8c2.9,3.6,6.6,5.3,11,5.3c3.7,0,7.3-1.4,10.8-4.3l0.2-3.6C251.5,48.4,248,49.9,244.2,49.9z M233.8,34.4
		c0-3.4,0.7-6.4,2.2-9.1c1.8-3.2,4.3-4.8,7.4-4.8c1.6,0,2.9,0.7,3.8,2c0.8,1.2,1.2,2.6,1.2,4.2c0,1.9-0.9,3.3-2.6,4.3
		c-1.9,0.8-3.8,1.6-5.8,2.4c-2.5,1.3-4.4,3.1-5.6,5.6C234,37.6,233.8,36.1,233.8,34.4z"/>
	<path class="st0" d="M311.4,5.3l-7.1,8.8h-2.5l2.5-8.8c1.1,0.4,2.3,0.6,3.7,0.6C309.4,6,310.5,5.8,311.4,5.3z"/>
	<path class="st0" d="M284.8,49.5c-3.1,2.4-6.5,3.6-10.1,3.6c-4.7,0-8.6-1.7-11.5-5.2c-2.8-3.3-4.2-7.4-4.2-12.2
		c0-5,1.5-9.1,4.5-12.3c3-3.2,7-4.8,12-4.8c1.7,0,3.1,0.2,4.2,0.6c0.6,0.3,1.9,1,3.7,2.1L282,26c-0.6-1.3-1.7-2.3-3.5-3.1
		c-1.7-0.8-3.4-1.2-5-1.2c-3.3,0-5.7,1.6-7.3,4.7c-1.2,2.3-1.8,5.4-1.8,9.1c0,4,0.9,7.4,2.8,10.3c2.1,3.3,5.1,4.9,8.8,4.9
		c2.2,0,4.8-1.5,7.7-4.4L284.8,49.5z"/>
	<path class="st0" d="M317.1,35.6c0,4.9-1.4,9-4.1,12.3c-3,3.5-6.8,5.3-11.5,5.3c-3.2,0-6.1-0.9-8.6-2.8c-2.5-1.9-4.2-4.3-5.3-7.4
		c-0.6-1.9-1-4-1-6.3l-0.1-0.6c0-4.8,1.4-8.9,4.1-12.2c3-3.5,6.8-5.2,11.5-5.2c4.6,0,8.3,1.7,11.1,5.1
		C315.8,26.9,317.1,30.9,317.1,35.6z M311.7,35.8c0-3.7-0.7-6.9-2.1-9.7c-1.7-3.6-4.2-5.4-7.5-5.4c-1.6,0-3.1,0.5-4.5,1.5
		c-3.7,2.7-5.5,7.5-5.5,14.4c0,3.6,0.7,6.6,2,9.2c1.6,3.4,4.1,5.1,7.3,5.1c1.6,0,3.1-0.5,4.6-1.5C309.8,46.7,311.7,42.2,311.7,35.8z
		"/>
	<g>
		<path class="st1" d="M315.1,53.9h2.3c-1,4.1-4,7.4-9.2,9.9c-5.1,2.5-10.8,3.7-16.9,3.7c-2.2,0-4.6-0.1-7.2-0.4l-7.1-0.8
			c-2.9-0.3-5-0.4-6.4-0.4c-3,0-6,0.7-8.9,2c-2.9,1.3-4.7,3.4-5.5,6.3h-2.6c-0.7-2.8-2.5-4.9-5.4-6.2c-2.9-1.4-5.9-2-9-2
			c-2.2,0-4.8,0.2-7.7,0.6c-5.5,0.7-9.8,1.1-13,1.1c-6,0-11.6-1.2-16.7-3.6c-5.1-2.4-8.2-5.8-9.3-10h2.4c2.5,5.5,7.8,8.2,15.8,8.2
			c2.5,0,6-0.3,10.4-0.8c4.4-0.6,7.9-0.8,10.6-0.8c4.2,0,8.4,0.8,12.7,2.5c4.3,1.6,7.7,4.4,10.2,8.2h0.3c2.3-3.4,5.6-6.1,9.9-7.9
			c4.4-1.8,8.8-2.8,13.4-2.8c3.3,0,6.9,0.3,10.6,0.8c3.7,0.6,7.2,0.8,10.4,0.8C307.2,62.2,312.6,59.4,315.1,53.9z"/>
	</g>
	<circle class="st0" cx="325.4" cy="49.9" r="3.1"/>
	<g>
		<path class="st0" d="M349.3,52.7c-1.6,0-2.4-0.6-2.4-1.7v-0.2c-2.1,1.4-4,2.1-5.7,2.1c-2.5,0-4.2-1-5.1-2.9
			c-0.3-0.6-0.5-1.4-0.5-2.4c0-0.9,0.2-1.8,0.7-2.5c0.4-0.7,1-1.3,1.8-1.7c1.5-0.8,3.6-1.2,6.3-1.2h2.4V41c0-1.7-0.1-2.8-0.4-3.4
			c-0.2-0.6-0.5-1-0.9-1.3c-0.4-0.3-0.8-0.4-1.4-0.4c-0.6,0-1.2,0.1-1.8,0.3c-0.6,0.2-1.1,0.5-1.7,0.8c-0.6,0.3-1.1,0.7-1.6,1.1
			l-1.4,1.1l-1.4-1.9c-0.2-0.2-0.3-0.5-0.3-0.8c0-0.3,0.2-0.6,0.7-0.9c0.5-0.3,1.1-0.6,1.8-0.8c1.5-0.5,2.9-0.7,4.2-0.7
			s2.4,0.1,3.3,0.4c0.9,0.3,1.7,0.7,2.4,1.2c1.5,1.2,2.3,3,2.3,5.3v9.7h3V52C352.8,52.5,351.3,52.7,349.3,52.7z M346.9,49.3v-4.9
			H344c-1.9,0-3.2,0.5-4,1.5c-0.3,0.4-0.5,0.9-0.5,1.4c0,0.5,0.1,1,0.2,1.3c0.1,0.3,0.3,0.6,0.5,0.9c0.5,0.5,1.2,0.8,2.3,0.8
			C343.5,50.4,345,50,346.9,49.3z"/>
		<path class="st0" d="M360.1,46.9c-0.9,0.5-1.4,1-1.4,1.5c0,0.5,0.2,0.9,0.6,1.1c0.4,0.2,0.9,0.4,1.6,0.6c0.7,0.1,1.4,0.2,2.3,0.3
			c0.8,0.1,1.7,0.2,2.6,0.3c0.9,0.1,1.7,0.2,2.6,0.4c0.8,0.2,1.6,0.4,2.3,0.8c1.5,0.8,2.2,2,2.2,3.6c0,1.8-0.9,3.1-2.8,4.1
			c-1.7,0.9-3.7,1.4-6.2,1.4c-2.4,0-4.7-0.4-6.8-1.2c-1.3-0.5-2.3-1.2-2.8-1.8c-0.3-0.3-0.4-0.7-0.4-0.9s0.1-0.5,0.2-0.6
			c0.1-0.2,0.3-0.3,0.6-0.5c0.5-0.3,1.3-0.7,2.4-1.1c1.8,2.7,4.2,4.1,7.3,4.1c2.1,0,3.5-0.4,4.4-1.3c0.3-0.3,0.5-0.8,0.5-1.3
			c0-0.5-0.2-0.9-0.6-1.2c-0.4-0.3-0.9-0.5-1.5-0.7c-0.6-0.2-1.3-0.3-2.1-0.4c-0.8-0.1-1.6-0.2-2.4-0.3c-0.8-0.1-1.6-0.3-2.4-0.5
			c-0.8-0.2-1.5-0.4-2.1-0.8c-1.4-0.7-2.1-1.7-2.1-3.1c0-1.1,0.6-1.9,1.8-2.6l0.9-0.5c-2.1-1.2-3.2-3.1-3.2-5.5c0-2,0.8-3.6,2.3-4.9
			c1.5-1.2,3.4-1.8,5.7-1.8c1.4,0,2.7,0.2,3.9,0.7c1.2,0.5,2.1,1.2,2.8,2.1l1-1.3c0.7-0.9,1.3-1.5,1.7-1.7c0.6-0.3,1.2-0.5,1.9-0.5
			c0.6,0,1.1,0.2,1.4,0.6c0.1,0.1,0.2,0.3,0.2,0.5v2.3c-1.8,0-2.9,0.1-3.3,0.2c-0.8,0.2-1.5,0.6-2.1,1.2c0.4,0.8,0.5,1.7,0.5,2.7
			c0,0.9-0.2,1.8-0.6,2.6c-0.4,0.8-1,1.5-1.7,2.1c-1.5,1.2-3.4,1.8-5.7,1.8C362.2,47.4,361.1,47.2,360.1,46.9z M367.4,40.7
			c0-3.3-1.3-4.9-4-4.9c-2.7,0-4,1.6-4,4.9c0,1.6,0.3,2.8,1,3.6c0.7,0.9,1.7,1.3,3,1.3c1.4,0,2.4-0.4,3.1-1.3
			C367.1,43.5,367.4,42.3,367.4,40.7z"/>
		<path class="st0" d="M393.1,51.2c-1.7,1.2-3.9,1.8-6.6,1.8c-2.7,0-4.9-0.8-6.7-2.4c-2-1.8-3-4.1-3-7.2c0-2.8,0.8-5.1,2.5-6.8
			c1.7-1.8,4.1-2.7,7.1-2.7c2.2,0,4,0.7,5.3,2c1.3,1.3,1.9,2.9,1.9,4.7c0,2.3-0.9,3.5-2.7,3.5h-10.2c0.2,2,1,3.6,2.4,4.8
			c1.3,1.1,3,1.7,5.1,1.7c1.4,0,2.8-0.2,4.4-0.7L393.1,51.2z M389.5,42.3c0.1-0.4,0.2-0.9,0.2-1.4s-0.1-1.1-0.3-1.7
			c-0.2-0.6-0.5-1.1-0.8-1.6c-0.8-1-1.8-1.6-3.1-1.6c-1.6,0-2.8,0.6-3.6,1.9c-0.7,1-1,2.5-1.1,4.4H389.5z"/>
		<path class="st0" d="M399.8,52.7c-1.3,0-2-0.6-2-1.7V36.4h-3v-1.3c1.1-0.5,2.9-0.7,5.5-0.7c0.6,0,0.9,0,1.1,0.1
			c0.3,0.1,0.4,0.4,0.4,0.8v0.9c0.2-0.1,0.5-0.2,0.9-0.4c0.5-0.2,1-0.5,1.7-0.7c1.7-0.6,3.1-0.9,4.3-0.9c1.2,0,2,0.1,2.7,0.4
			c0.6,0.3,1.1,0.7,1.4,1.2c0.6,0.8,0.9,2.1,0.9,3.9v11.1h3V52c-0.9,0.5-2.4,0.7-4.5,0.7c-0.8,0-1.3-0.1-1.6-0.2
			c-0.5-0.3-0.8-0.8-0.8-1.4V39.9c0-1.2-0.1-2-0.4-2.4c-0.2-0.4-0.5-0.6-0.8-0.7c-0.3-0.1-0.7-0.2-1.1-0.2c-0.4,0-0.8,0-1.2,0.1
			c-0.4,0-0.8,0.1-1.2,0.2c-0.4,0.1-0.8,0.2-1.2,0.2c-0.4,0.1-0.7,0.2-1,0.2c-0.5,0.1-0.9,0.2-1.1,0.3v9.5c0,1.8,0.1,3,0.2,3.7
			l0.3,1.3C401.6,52.5,400.8,52.7,399.8,52.7z"/>
		<path class="st0" d="M433.9,51.1c-1.7,1.2-4,1.8-6.7,1.8c-2.6,0-4.9-0.8-6.7-2.3c-2-1.7-3-4-3-6.8c0-3,1-5.3,3-7.2
			c1.9-1.7,4.4-2.6,7.4-2.6c1.4,0,2.7,0.2,3.7,0.6c0.7,0.3,1.1,0.6,1.1,1c0,0.2,0,0.3-0.1,0.4l-1.2,2.3l-1.2-0.7
			c-1.7-1-3.2-1.5-4.4-1.5c-1.4,0-2.5,0.7-3.3,2.1c-0.7,1.2-1,2.5-1,3.9c0,1.4,0.1,2.6,0.4,3.6c0.3,1,0.7,1.9,1.4,2.6
			c1.3,1.6,3.2,2.4,5.6,2.4c1.4,0,2.9-0.2,4.5-0.7L433.9,51.1z"/>
		<path class="st0" d="M450.2,39.1c0-1.3-0.3-2.4-0.9-3.4l2.2-1.1c0.4-0.2,0.7-0.3,1-0.3c0.7,0,1.1,0.6,1.1,1.8
			c0,1.3-0.3,2.7-0.8,4.2c-0.5,1.5-1,2.8-1.4,3.8c-0.4,1-0.8,2-1.3,3c-0.4,1-0.9,1.9-1.4,2.8c-1.6,3.1-2.8,5.1-3.4,6
			c-0.7,0.9-1.3,1.6-1.8,2.2c-0.5,0.6-1.1,1.1-1.8,1.5c-1.4,0.9-2.9,1.4-4.6,1.4c-1.1,0-1.9-0.2-2.4-0.5c-0.2-0.1-0.3-0.3-0.3-0.4
			c0-0.2,0-0.3,0.1-0.4l0.9-2.6l2.2,0.7c0.6,0.2,1.2,0.3,1.7,0.3c0.5,0,1-0.2,1.5-0.5c0.5-0.3,0.9-0.7,1.4-1.1
			c0.8-0.8,1.5-1.8,2.1-2.9l-6.9-16.1l-2.6,1.2l-0.6-1.2l1-0.9c1.7-1.5,3.1-2.3,4.3-2.3c0.7,0,1.1,0.3,1.3,0.8c0,0,0.1,0.2,0.2,0.6
			l5.1,12.6c0.2,0.5,0.3,0.8,0.4,0.9C449,44.7,450.2,41.4,450.2,39.1z"/>
	</g>
	<g>
		<path class="st0" d="M4.9,41.3h2.7c0.8,0,1.6-0.1,2.3-0.3c0.7-0.2,1.4-0.6,1.9-1c0.6-0.4,1-1,1.4-1.6c0.3-0.6,0.5-1.4,0.5-2.3
			s-0.2-1.6-0.5-2.2c-0.3-0.6-0.7-1.1-1.2-1.6s-1.1-0.7-1.7-0.9c-0.6-0.2-1.3-0.3-2-0.3c-1.7,0-3.2,0.5-4.4,1.5s-2,2.4-2.5,4.2H0.7
			c0-1.1,0-2,0.1-2.7c0.1-0.7,0.3-1.4,0.8-1.9c0.3-0.4,0.7-0.7,1.2-1c0.5-0.3,1.1-0.6,1.7-0.8s1.3-0.4,1.9-0.5
			c0.7-0.1,1.3-0.2,1.9-0.2c0.9,0,1.8,0.1,2.9,0.2c1,0.2,2,0.5,2.8,0.9c0.9,0.5,1.6,1.1,2.1,2c0.6,0.9,0.8,2,0.8,3.5
			c0,1.2-0.4,2.3-1.2,3.3c-0.8,1-2.1,1.8-3.8,2.3c1.1,0.2,2.1,0.5,2.8,0.9c0.8,0.4,1.4,0.8,1.8,1.3c0.5,0.5,0.8,1.1,1,1.8
			c0.2,0.7,0.3,1.4,0.3,2.1c0,1.4-0.3,2.5-0.9,3.4c-0.6,0.9-1.4,1.6-2.3,2.1c-0.9,0.5-1.9,0.9-3,1c-1.1,0.2-2.1,0.3-3.1,0.3
			c-1.8,0-3.4-0.3-4.9-1S1.1,52.1,0,50.3l0.7-0.5c0.8,1.1,1.8,2,3,2.6s2.6,1,4.4,1c1.9,0,3.4-0.5,4.6-1.4s1.7-2.2,1.7-3.9
			c0-1.7-0.6-3.1-1.7-4c-1.2-0.9-2.9-1.4-5.1-1.4H4.9V41.3z"/>
		<path class="st0" d="M22.6,41.5c0-1.1-0.1-2-0.4-2.6c-0.3-0.7-1-1-2.1-1h-0.7v-0.7h3.2c0.9,0,1.6,0.1,2.1,0.4
			c0.5,0.3,0.8,0.7,1,1.2h0.2c0.4-0.5,0.9-0.9,1.7-1.3c0.8-0.4,1.8-0.6,3.2-0.6c1.1,0,2,0.2,2.8,0.7c0.8,0.5,1.5,1.1,2,1.9
			c0.5,0.8,0.9,1.7,1.2,2.8c0.3,1.1,0.4,2.2,0.4,3.4S37,48,36.7,49.1c-0.3,1.1-0.7,2-1.3,2.8c-0.6,0.8-1.3,1.4-2.1,1.9
			c-0.9,0.5-1.9,0.7-3,0.7c-1,0-1.9-0.1-2.6-0.3c-0.7-0.2-1.4-0.5-1.9-0.7V61h-3.2V41.5z M25.8,52c0.6,0.3,1.1,0.5,1.7,0.7
			c0.6,0.2,1.2,0.3,1.7,0.3c0.8,0,1.5-0.2,2.1-0.6c0.6-0.4,1-0.9,1.4-1.6s0.6-1.4,0.8-2.3c0.2-0.9,0.3-1.9,0.3-2.9
			c0-1-0.1-2-0.2-2.9c-0.2-0.9-0.4-1.7-0.8-2.3c-0.3-0.7-0.8-1.2-1.3-1.6s-1.1-0.6-1.9-0.6c-0.5,0-0.9,0.1-1.3,0.2s-0.7,0.3-1,0.5
			c-0.3,0.2-0.6,0.4-0.8,0.7c-0.2,0.3-0.4,0.5-0.6,0.8V52z"/>
		<path class="st0" d="M40.4,45.7c0-1.2,0.2-2.4,0.5-3.4c0.3-1.1,0.9-2,1.5-2.8S44,38,45,37.5c1-0.5,2.1-0.7,3.4-0.7
			c1.2,0,2.4,0.2,3.3,0.7c1,0.5,1.8,1.1,2.5,1.9s1.2,1.7,1.5,2.8c0.3,1.1,0.5,2.2,0.5,3.4s-0.2,2.4-0.5,3.4c-0.3,1.1-0.9,2-1.5,2.8
			s-1.5,1.4-2.5,1.9c-1,0.5-2.1,0.7-3.3,0.7c-1.3,0-2.4-0.2-3.4-0.7c-1-0.5-1.8-1.1-2.5-1.9s-1.2-1.7-1.5-2.8
			C40.6,48,40.4,46.9,40.4,45.7z M52.8,45.7c0-1-0.1-2-0.3-2.9c-0.2-0.9-0.5-1.7-0.9-2.3c-0.4-0.7-0.9-1.2-1.4-1.6
			c-0.6-0.4-1.2-0.6-1.8-0.6c-0.7,0-1.3,0.2-1.8,0.6c-0.6,0.4-1,0.9-1.4,1.6c-0.4,0.7-0.7,1.4-0.9,2.3c-0.2,0.9-0.3,1.9-0.3,2.9
			c0,1,0.1,2,0.3,2.9c0.2,0.9,0.5,1.7,0.9,2.3s0.9,1.2,1.4,1.6c0.6,0.4,1.2,0.6,1.8,0.6c0.7,0,1.3-0.2,1.8-0.6
			c0.6-0.4,1-0.9,1.4-1.6s0.7-1.4,0.9-2.3C52.7,47.7,52.8,46.7,52.8,45.7z"/>
		<path class="st0" d="M66.7,35c-0.8,0.2-1.4,0.5-2,0.8c-0.6,0.3-1.1,0.8-1.5,1.4c-0.4,0.6-0.8,1.4-1,2.4c-0.2,1-0.4,2.2-0.5,3.7
			h0.2c0.5-1.8,1.2-3.1,2.2-3.9c1-0.8,2.4-1.2,4.2-1.2c0.9,0,1.7,0.2,2.6,0.5c0.8,0.3,1.6,0.8,2.2,1.5c0.6,0.7,1.1,1.5,1.5,2.5
			c0.4,1,0.6,2.2,0.6,3.6c0,1.4-0.2,2.6-0.6,3.6c-0.4,1-0.9,1.9-1.6,2.5c-0.7,0.7-1.5,1.2-2.4,1.5c-0.9,0.3-1.9,0.5-3,0.5
			c-1.1,0-2.1-0.2-3-0.5s-1.7-0.8-2.4-1.5c-0.7-0.7-1.2-1.6-1.6-2.7S60,47.4,60,45.8v-1.4c0-2.2,0.1-4,0.3-5.5
			c0.2-1.4,0.5-2.6,0.9-3.5c0.4-0.9,0.9-1.5,1.6-2c0.7-0.4,1.5-0.8,2.4-1l5.4-1.3c0.8-0.2,1.4-0.4,1.9-0.6c0.4-0.2,0.7-0.6,0.8-1
			h0.7V32c0,0.9-0.4,1.5-1.1,1.6L66.7,35z M67.6,39.7c-0.6,0-1.1,0.1-1.6,0.3c-0.5,0.2-0.9,0.6-1.3,1.1c-0.4,0.5-0.7,1.2-0.9,2.1
			s-0.3,1.9-0.3,3.1c0,1.3,0.1,2.4,0.3,3.2s0.5,1.5,0.9,2.1s0.8,0.9,1.3,1.1c0.5,0.2,1,0.3,1.6,0.3c0.5,0,1-0.1,1.5-0.3
			s0.9-0.6,1.3-1.1c0.4-0.5,0.7-1.2,0.9-2.1c0.2-0.9,0.3-1.9,0.3-3.2c0-1.2-0.1-2.3-0.3-3.1c-0.2-0.9-0.5-1.5-0.9-2.1
			c-0.4-0.5-0.8-0.9-1.3-1.1S68.1,39.7,67.6,39.7z"/>
		<path class="st0" d="M83.7,41.5c0,2.7-0.2,4.9-0.5,6.6c-0.3,1.7-0.7,3-1.2,3.9c-0.5,0.9-1.1,1.6-1.7,1.9c-0.6,0.3-1.3,0.5-2,0.5
			c-0.2,0-0.5,0-0.9-0.1s-0.7-0.1-0.9-0.2v-0.9c0.6,0,1.1-0.1,1.7-0.5c0.6-0.3,1.1-0.9,1.5-1.7c0.4-0.8,0.8-2,1.1-3.6
			c0.3-1.5,0.4-3.5,0.4-6c0-0.5,0-1-0.1-1.5c-0.1-0.4-0.2-0.8-0.4-1.2c-0.2-0.3-0.4-0.6-0.8-0.7c-0.3-0.2-0.8-0.3-1.3-0.3v-0.7h14.6
			v16.9H90V38.6h-6.3V41.5z"/>
		<path class="st0" d="M111.8,46.2h-10.9c0,1,0.1,1.9,0.3,2.7c0.2,0.8,0.5,1.6,1,2.2s0.9,1.1,1.5,1.4c0.6,0.3,1.3,0.5,2.1,0.5
			c1.2,0,2.2-0.3,2.9-0.8c0.8-0.5,1.5-1.2,2.1-2.1l0.7,0.5c-0.8,1.4-1.8,2.3-2.8,2.9c-1.1,0.6-2.3,0.9-3.7,0.9
			c-1.3,0-2.4-0.2-3.3-0.7s-1.7-1.1-2.4-1.9s-1.1-1.7-1.4-2.8c-0.3-1.1-0.5-2.2-0.5-3.4s0.2-2.4,0.5-3.4c0.3-1.1,0.8-2,1.4-2.8
			s1.4-1.4,2.3-1.9c0.9-0.5,1.9-0.7,3-0.7c2.4,0,4.3,0.7,5.4,2.1c1.2,1.4,1.8,3.3,1.8,5.9L111.8,46.2z M108.4,44.8
			c0-2.1-0.3-3.7-0.9-4.8c-0.6-1.1-1.6-1.7-2.8-1.7c-0.6,0-1.1,0.2-1.5,0.5c-0.5,0.3-0.9,0.8-1.2,1.3c-0.3,0.6-0.6,1.3-0.8,2.1
			c-0.2,0.8-0.3,1.7-0.3,2.6H108.4z"/>
		<path class="st0" d="M126.9,46.4h-7.2v7.7h-3.2V41.5c0-1.1-0.2-2-0.5-2.6c-0.3-0.7-1-1-2.1-1h-0.5v-0.7h3.1c0.6,0,1.1,0.1,1.6,0.2
			c0.4,0.1,0.8,0.3,1,0.6c0.3,0.3,0.4,0.8,0.5,1.3c0.1,0.6,0.1,1.3,0.1,2.2v3.4h7.2v-7.7h3.2v12.6c0,1.1,0.1,2,0.5,2.6
			c0.3,0.7,1,1,2.1,1h0.5v0.7h-3.1c-0.6,0-1.1-0.1-1.6-0.2c-0.4-0.1-0.8-0.3-1-0.6c-0.3-0.3-0.4-0.8-0.5-1.3
			c-0.1-0.6-0.1-1.3-0.1-2.2V46.4z"/>
		<path class="st0" d="M134.9,45.7c0-1.2,0.2-2.4,0.5-3.4c0.3-1.1,0.9-2,1.5-2.8s1.5-1.4,2.5-1.9c1-0.5,2.1-0.7,3.4-0.7
			c1.2,0,2.4,0.2,3.3,0.7c1,0.5,1.8,1.1,2.5,1.9s1.2,1.7,1.5,2.8c0.3,1.1,0.5,2.2,0.5,3.4s-0.2,2.4-0.5,3.4c-0.3,1.1-0.9,2-1.5,2.8
			s-1.5,1.4-2.5,1.9c-1,0.5-2.1,0.7-3.3,0.7c-1.3,0-2.4-0.2-3.4-0.7c-1-0.5-1.8-1.1-2.5-1.9s-1.2-1.7-1.5-2.8
			C135.1,48,134.9,46.9,134.9,45.7z M147.3,45.7c0-1-0.1-2-0.3-2.9c-0.2-0.9-0.5-1.7-0.9-2.3c-0.4-0.7-0.9-1.2-1.4-1.6
			c-0.6-0.4-1.2-0.6-1.8-0.6c-0.7,0-1.3,0.2-1.8,0.6c-0.6,0.4-1,0.9-1.4,1.6c-0.4,0.7-0.7,1.4-0.9,2.3c-0.2,0.9-0.3,1.9-0.3,2.9
			c0,1,0.1,2,0.3,2.9c0.2,0.9,0.5,1.7,0.9,2.3s0.9,1.2,1.4,1.6c0.6,0.4,1.2,0.6,1.8,0.6c0.7,0,1.3-0.2,1.8-0.6
			c0.6-0.4,1-0.9,1.4-1.6s0.7-1.4,0.9-2.3C147.2,47.7,147.3,46.7,147.3,45.7z"/>
		<path class="st0" d="M170.3,37.2c0.9,0,1.7,0.1,2.6,0.2c0.8,0.1,1.6,0.4,2.2,0.7c0.6,0.3,1.1,0.8,1.5,1.3c0.4,0.6,0.6,1.2,0.6,2.1
			c0,1-0.3,1.8-0.8,2.4c-0.6,0.6-1.5,1.1-2.8,1.3c1.4,0.3,2.4,0.8,3.2,1.5c0.8,0.7,1.1,1.6,1.1,2.7c0,0.9-0.2,1.7-0.6,2.3
			c-0.4,0.6-0.9,1.1-1.6,1.4c-0.7,0.4-1.5,0.6-2.4,0.8c-0.9,0.1-1.9,0.2-3,0.2h-5.9V41.5c0-1.1-0.2-2-0.5-2.6c-0.3-0.7-1-1-2.1-1
			h-0.4v-0.7H170.3z M167.6,44.6h2c1.3,0,2.3-0.3,3-0.8c0.7-0.5,1.1-1.3,1.1-2.3c0-1-0.4-1.8-1.1-2.3c-0.7-0.5-1.6-0.8-2.7-0.8
			c-0.4,0-0.8,0-1.2,0.1c-0.5,0.1-0.8,0.2-1.1,0.3V44.6z M167.6,46v6.5c0.3,0.1,0.6,0.2,1.1,0.3c0.5,0.1,0.9,0.1,1.2,0.1
			c1.4,0,2.5-0.3,3.3-0.8c0.8-0.6,1.2-1.4,1.2-2.6c0-2.3-1.6-3.4-4.9-3.4H167.6z"/>
	</g>
</g>
</svg>
