<?xml version="1.0" encoding="utf-8"?>
<!-- Generator: Adobe Illustrator 19.0.0, SVG Export Plug-In . SVG Version: 6.00 Build 0)  -->
<svg version="1.1" id="Layer_1" xmlns="http://www.w3.org/2000/svg" xmlns:xlink="http://www.w3.org/1999/xlink" x="0px" y="0px"
	 viewBox="0 0 200 70" style="enable-background:new 0 0 200 70;" xml:space="preserve">
<style type="text/css">
	.st0{fill:#046736;}
	.st1{fill:#FFFFFF;}
	.st2{opacity:0.5;}
	.st3{fill:#232221;}
</style>
<g>
	<path class="st0" d="M192.8,0.1l-4.4,0L7.1,0.4l-6.3,0l0,6.2c0,0,0,0,0,0l0,35.6c0,3.4,2.8,6.2,6.3,6.2h2.1l183.6-0.2l6.2,0l0-6.2
		l0-29.7l0-5.8C199.1,2.9,196.3,0.1,192.8,0.1"/>
	<path class="st1" d="M19.5,16.2c1.5,0,2.4-0.3,3-0.9c0.5-0.6,0.7-1.7,0.7-3.5c0-1.8-0.2-2.9-0.7-3.5c-0.5-0.6-1.5-0.9-2.9-0.9
		c-1.5,0-2.4,0.3-3,0.9c-0.5,0.6-0.7,1.7-0.7,3.5c0,1.8,0.2,2.9,0.7,3.5C17,16,18,16.2,19.5,16.2 M17.6,9.2c0.1-0.2,0.5-0.5,1.8-0.5
		c1.2,0,1.7,0.3,1.8,0.5c0.2,0.2,0.4,0.9,0.4,2.6c0,1.7-0.2,2.3-0.4,2.6c-0.2,0.2-0.6,0.5-1.8,0.5c-1.2,0-1.7-0.2-1.8-0.5
		c-0.2-0.2-0.4-0.9-0.4-2.6C17.3,10.1,17.5,9.5,17.6,9.2"/>
	<path class="st1" d="M31.9,15.5c0.4-0.4,0.6-1.1,0.6-2c0-0.9-0.2-1.6-0.6-2c-0.4-0.4-1.1-0.6-2.1-0.6l-2.4,0V8.9l4.4,0l0-1.4
		l-5.9,0l0,8.7l3.9,0C30.8,16.1,31.4,15.9,31.9,15.5 M29.6,12.3c0.8,0,1,0.1,1.1,0.2c0.1,0.1,0.2,0.4,0.2,1c0,0.6-0.1,0.9-0.2,1
		c-0.1,0.1-0.3,0.2-1,0.2l-2.4,0v-2.5L29.6,12.3z"/>
	<polygon class="st1" points="35.4,11.3 36.7,11.3 36.8,7.5 35.2,7.5 	"/>
	<path class="st1" d="M43,16.2c1.4,0,2.3-0.2,2.8-0.6c0.5-0.4,0.7-1.1,0.7-2.2l0-0.3l-1.5,0l0,0.3c0,0.8-0.2,1.1-0.3,1.2
		c-0.1,0.1-0.5,0.3-1.7,0.3c-1.1,0-1.5-0.2-1.7-0.4c-0.1-0.2-0.3-0.6-0.3-2.1l4.1,0V11l-4.1,0c0-1.2,0.2-1.6,0.4-1.8
		c0.3-0.3,0.8-0.5,1.7-0.5c1,0,1.4,0.2,1.5,0.3c0.1,0.1,0.3,0.4,0.4,1.2l0,0.2h1.4l0-0.3c0-1.1-0.3-1.8-0.8-2.2
		c-0.5-0.4-1.3-0.6-2.6-0.6c-1.4,0-2.3,0.3-2.8,0.9c-0.5,0.6-0.7,1.8-0.7,3.6c0,1.8,0.2,2.9,0.7,3.5C40.6,15.9,41.5,16.2,43,16.2"/>
	<path class="st1" d="M56.2,7.5l-6.1,0l0,4.5c0,0.6-0.1,1.2-0.2,1.6c-0.1,0.4-0.3,0.8-0.5,1.2l-0.6,0l0,3.2l1.4,0l0-1.9l5.2,0l0,1.9
		h1.4l0-3.2h-0.6L56.2,7.5z M54.7,8.8l0,5.9l-3.6,0c0.2-0.3,0.3-0.7,0.4-1c0.1-0.5,0.2-1.1,0.2-2l0-3L54.7,8.8z"/>
	<polygon class="st1" points="60.9,12.4 65,12.4 65,16.1 66.5,16.1 66.5,7.5 65,7.5 65,11 60.9,11 60.9,7.5 59.4,7.5 59.4,16.1 
		60.9,16.1 	"/>
	<path class="st1" d="M72.1,7.4L69,16.1l1.6,0l0.6-1.7l3.7,0l0.6,1.7l1.6,0l-3.2-8.6L72.1,7.4z M71.6,13.1L73,9.2l1.4,3.8L71.6,13.1
		z"/>
	<polygon class="st1" points="81,12.4 85.1,12.4 85.1,16.1 86.6,16.1 86.6,7.4 85.1,7.4 85.1,11 81,11 81,7.5 79.5,7.5 79.5,16.1 
		81,16.1 	"/>
	<polygon class="st1" points="95.3,11 91.2,11 91.2,7.4 89.7,7.4 89.7,16.1 91.2,16.1 91.2,12.3 95.3,12.3 95.3,16.1 96.8,16.1 
		96.8,7.4 95.3,7.4 	"/>
	<path class="st1" d="M101.1,16.1l1.8-3.2h2.1l0,3.2l1.5,0l0-8.6l-3.9,0c-0.9,0-1.6,0.2-2.1,0.6c-0.5,0.4-0.7,1.1-0.7,2
		c0,0.7,0.2,1.4,0.6,1.8c0.3,0.3,0.6,0.6,1.1,0.7l-2,3.4L101.1,16.1z M102.4,8.8l2.6,0l0,2.7l-2.2,0c-1.5,0-1.6-0.7-1.6-1.2
		c0-0.5,0.1-0.9,0.3-1.1C101.6,8.9,101.9,8.8,102.4,8.8"/>
	<path class="st1" d="M27,34.8c0,1.4-0.2,2.4-0.7,2.8c-0.3,0.3-1.2,0.7-3.4,0.7c-1.7,0-2.8-0.3-3.3-1c-0.4-0.5-0.8-1.8-0.8-5.1
		c0-3.3,0.4-4.6,0.8-5.1c0.5-0.7,1.6-1.1,3.3-1.1c2.2,0,3,0.4,3.2,0.6c0.2,0.2,0.5,0.8,0.7,2.6l0,0.5l2.8,0v-0.6
		c0-2.1-0.5-3.6-1.4-4.5c-1-1-2.8-1.4-5.5-1.4c-2.7,0-4.6,0.6-5.6,1.8c-1,1.3-1.5,3.6-1.5,7.1c0,3.6,0.5,5.9,1.6,7.1
		c1,1.2,2.8,1.7,5.5,1.7c2.7,0,4.5-0.4,5.5-1.4c1-0.9,1.5-2.5,1.5-4.8l0-0.6l-2.9,0V34.8z"/>
	<path class="st1" d="M39.7,23.4l-6.3,17.5l3.2,0l1.3-3.4l7.4,0l1.2,3.4l3.1,0l-6.5-17.5L39.7,23.4z M38.7,34.8l2.8-7.8l2.8,7.8
		L38.7,34.8z"/>
	<polygon class="st1" points="63.5,36.4 58.2,23.4 54.2,23.4 54.2,40.8 57.1,40.8 57.1,28.2 62.4,40.8 64.7,40.8 69.9,28.1 70,40.8 
		72.9,40.8 72.9,23.3 68.9,23.3 	"/>
	<path class="st1" d="M85.6,23.2c-3,0-5,0.6-6,1.8c-1,1.2-1.5,3.5-1.5,7.1c0,3.6,0.5,5.9,1.5,7.1c1,1.2,3,1.8,5.9,1.8
		c3,0,4.9-0.6,5.9-1.8c1-1.2,1.5-3.5,1.5-7.1c0-3.6-0.5-5.9-1.5-7.1C90.5,23.7,88.6,23.2,85.6,23.2 M89.3,37.3c-0.3,0.4-1.2,1-3.7,1
		c-2.5,0-3.4-0.5-3.7-0.9c-0.3-0.5-0.8-1.8-0.8-5.2c0-3.5,0.4-4.8,0.7-5.3c0.2-0.3,1-0.9,3.7-0.9c2.5,0,3.4,0.5,3.7,0.9
		c0.3,0.5,0.7,1.8,0.7,5.2C90.1,35.5,89.7,36.8,89.3,37.3"/>
	<polygon class="st1" points="98.1,40.8 101,40.8 101,26.1 109.4,26.1 109.4,40.8 112.4,40.8 112.3,23.3 98.1,23.3 	"/>
	<path class="st1" d="M124.9,23.1c-3,0-5,0.6-6,1.8c-1,1.2-1.5,3.5-1.5,7.1c0,3.6,0.5,5.9,1.5,7.1c1,1.2,3,1.8,5.9,1.8
		c3,0,4.9-0.6,5.9-1.8c1-1.2,1.5-3.5,1.5-7.1c0-3.6-0.5-5.9-1.5-7.1C129.9,23.7,127.9,23.1,124.9,23.1 M128.6,37.2
		c-0.3,0.4-1.2,1-3.7,1c-2.5,0-3.4-0.5-3.7-0.9c-0.3-0.5-0.8-1.8-0.8-5.2c0-3.5,0.4-4.8,0.7-5.3c0.3-0.3,1.1-0.9,3.7-0.9
		c2.5,0,3.4,0.5,3.7,0.9c0.3,0.5,0.7,1.8,0.8,5.2C129.4,35.5,129,36.8,128.6,37.2"/>
	<polygon class="st1" points="146.9,36.3 141.5,23.3 137.5,23.3 137.5,40.7 140.5,40.7 140.5,28.1 145.7,40.7 148.1,40.7 153.3,28 
		153.3,40.7 156.2,40.7 156.2,23.2 152.3,23.2 	"/>
	<polygon class="st1" points="162,40.7 164.9,40.7 164.9,23.3 161.9,23.3 	"/>
	<path class="st1" d="M180.6,23.2l0,7.3c-0.4,0.1-0.7,0.1-1.2,0.1c-0.6,0-1.4,0.1-2.2,0.1l-0.5,0c-2,0-2.6-0.2-2.9-0.4
		c-0.6-0.4-0.7-1.5-0.7-2.3l0-4.7l-2.9,0l0,4.4c0,2.3,0.4,3.8,1.3,4.6c0.9,0.8,2.4,1.2,4.8,1.2c0.7,0,1.6,0,2.5,0
		c0.7,0,1.3-0.1,1.9-0.2l0,7.5l2.9,0l0-17.5L180.6,23.2z"/>
	<g class="st2">
		<g>
			<path class="st3" d="M151.6,63.8h-1.3v6h-1.8V57h1.8v5.4h1.3l3.8-5.4h1.9l-4.2,6l4.6,6.8h-2.1L151.6,63.8z"/>
		</g>
		<g>
			<path class="st3" d="M167.3,60v9.8h-1.7v-4.4c0-0.4,0-0.8,0-1.2c0-0.4,0-0.7,0.1-1.1c0-0.3,0-0.6,0.1-0.8c0-0.2,0-0.3,0-0.4h-0.1
				l-4.1,7.9h-2.1V60h1.7v4.4c0,0.4,0,0.8,0,1.1c0,0.4,0,0.7-0.1,1c0,0.3,0,0.6-0.1,0.8c0,0.2,0,0.4,0,0.4h0.1l4-7.8H167.3z"/>
		</g>
		<g>
			<path class="st3" d="M169.7,57.8c-0.3,0-0.6-0.1-0.8-0.3c-0.2-0.2-0.3-0.4-0.3-0.7c0-0.3,0.1-0.6,0.3-0.8
				c0.2-0.2,0.5-0.3,0.8-0.3c0.3,0,0.5,0.1,0.8,0.3c0.2,0.2,0.3,0.5,0.3,0.8c0,0.3-0.1,0.5-0.3,0.7C170.3,57.7,170,57.8,169.7,57.8z
				 M170.8,69.9V60h1.7v9.8H170.8z M173.6,57.8c-0.3,0-0.6-0.1-0.8-0.3c-0.2-0.2-0.3-0.4-0.3-0.7c0-0.3,0.1-0.6,0.3-0.8
				c0.2-0.2,0.5-0.3,0.8-0.3c0.3,0,0.6,0.1,0.8,0.3c0.2,0.2,0.3,0.5,0.3,0.8c0,0.3-0.1,0.5-0.3,0.7C174.2,57.7,174,57.8,173.6,57.8z
				"/>
		</g>
		<g>
			<path class="st3" d="M183.9,67c0,0.6-0.1,1-0.3,1.4c-0.2,0.4-0.5,0.7-0.9,0.9c-0.4,0.2-0.8,0.4-1.3,0.5c-0.5,0.1-1,0.1-1.5,0.1
				h-3.6v-9.7c0.5-0.1,1-0.2,1.6-0.3c0.5-0.1,1.1-0.1,1.7-0.1c0.5,0,1,0,1.5,0.1c0.5,0.1,0.9,0.2,1.3,0.4c0.4,0.2,0.7,0.5,0.9,0.8
				c0.2,0.3,0.3,0.8,0.3,1.3c0,0.6-0.2,1-0.5,1.3c-0.3,0.3-0.7,0.5-1.2,0.7v0.1c0.3,0,0.6,0.1,0.8,0.3c0.3,0.1,0.5,0.3,0.7,0.5
				c0.2,0.2,0.4,0.4,0.5,0.7C183.8,66.2,183.9,66.6,183.9,67z M181.6,62.6c0-0.5-0.2-0.9-0.6-1.1c-0.4-0.2-0.9-0.3-1.6-0.3
				c-0.3,0-0.6,0-0.8,0c-0.2,0-0.5,0-0.7,0.1V64h1.9c0.6,0,1.1-0.1,1.4-0.3C181.4,63.5,181.6,63.1,181.6,62.6z M182,66.9
				c0-0.5-0.2-1-0.5-1.2c-0.3-0.3-0.9-0.4-1.7-0.4h-2v3.3h1.9c0.8,0,1.4-0.1,1.7-0.4C181.9,67.9,182,67.5,182,66.9z"/>
		</g>
	</g>
</g>
</svg>
