<svg xmlns="http://www.w3.org/2000/svg" xmlns:xlink="http://www.w3.org/1999/xlink" width="17.94" height="13.562" viewBox="0 0 17.94 13.562">
  <defs>
    <style>
      .cls-1 {
        fill: #fff;
        fill-rule: evenodd;
        filter: url(#filter);
      }
    </style>
    <filter id="filter" x="1027" y="608.063" width="17.94" height="13.562" filterUnits="userSpaceOnUse">
      <feFlood result="flood" flood-color="#007848"/>
      <feComposite result="composite" operator="in" in2="SourceGraphic"/>
      <feBlend result="blend" in2="SourceGraphic"/>
    </filter>
  </defs>
  <path id="Shape_16_copy_3" data-name="Shape 16 copy 3" class="cls-1" d="M1038.24,608.217a3.441,3.441,0,0,0-2.53,3.451l0.04,0.588-0.65-.073a10.934,10.934,0,0,1-6.17-2.78l-0.85-.78-0.22.577a3.243,3.243,0,0,0,.8,3.547c0.52,0.5.4,0.575-.49,0.275a1.678,1.678,0,0,0-.61-0.131,3.516,3.516,0,0,0,2.24,3.14l0.63,0.276-0.75.012c-0.72,0-.75.012-0.67,0.264a3.814,3.814,0,0,0,2.42,1.967l0.81,0.251-0.7.384a7.834,7.834,0,0,1-3.48.887,4.243,4.243,0,0,0-1.06.1,10.316,10.316,0,0,0,2.5,1.055,11.835,11.835,0,0,0,8.5-.887,10.75,10.75,0,0,0,4.32-4.652,11.5,11.5,0,0,0,.88-3.594c0-.554.04-0.624,0.76-1.284a8.14,8.14,0,0,0,.91-0.923c0.13-.228.12-0.228-0.54-0.025-1.11.362-1.26,0.313-.72-0.226a3.468,3.468,0,0,0,.88-1.283,0.724,0.724,0,0,0-.41.132,7.348,7.348,0,0,1-1.14.407l-0.7.205-0.64-.4a5.147,5.147,0,0,0-1.1-.528A4.779,4.779,0,0,0,1038.24,608.217Z" transform="translate(-1027 -608.063)"/>
</svg>
