<?xml version="1.0" encoding="utf-8"?>
<!-- Generator: Adobe Illustrator 19.0.0, SVG Export Plug-In . SVG Version: 6.00 Build 0)  -->
<svg version="1.1" id="Layer_1" xmlns="http://www.w3.org/2000/svg" xmlns:xlink="http://www.w3.org/1999/xlink" x="0px" y="0px"
	 viewBox="-31 33 33 35" style="enable-background:new -31 33 33 35;" xml:space="preserve">
<path d="M-10,46.7c0,0-8.3,0-8.9,0l0,0c-0.8,0-1.3,0.7-1.3,1.4v8.6c0,0.8,0.6,1.4,1.3,1.4l0,0c0.4,0,0.8-0.2,1.1-0.5l0.6,8.4
	c0,0.8,0.7,1.3,1.4,1.3h2.9c0.8,0,1.3-0.6,1.4-1.3l0.6-8.4c0.3,0.3,0.7,0.6,1.1,0.6l0,0c0.8,0,1.3-0.7,1.3-1.4v-8.6
	C-8.7,47.3-9.2,46.7-10,46.7L-10,46.7z"/>
<path d="M-10.7,42c0,2.1-1.7,3.8-3.8,3.8s-3.8-1.7-3.8-3.8c0-2.1,1.7-3.8,3.8-3.8C-12.4,38.2-10.7,39.9-10.7,42L-10.7,42z"/>
<path d="M-22.9,40.5c0,0-6.6,0-7,0l0,0c-0.7,0-1.1,0.5-1.1,1.1v6.8c0,0.6,0.5,1.1,1.1,1.1l0,0c0.4,0,0.7-0.2,0.9-0.4l0.4,6.6
	c0,0.6,0.5,1.1,1.1,1.1h2.2c0.6,0,1.1-0.5,1.1-1.1l0.4-6.6c0.2,0.3,0.5,0.4,0.9,0.4l0,0c0.6,0,1.1-0.5,1.1-1.1v-6.8
	C-21.9,40.9-22.3,40.5-22.9,40.5L-22.9,40.5z"/>
<path d="M-23.5,36.7c0,1.6-1.3,3-3,3s-3-1.3-3-3s1.3-3,3-3S-23.5,35.1-23.5,36.7L-23.5,36.7z"/>
<path d="M-6.1,40.5c0,0,6.6,0,7,0l0,0c0.6,0,1.1,0.5,1.1,1.1v6.8c0,0.6-0.5,1.1-1.1,1.1l0,0c-0.3,0-0.7-0.2-0.9-0.4l-0.4,6.6
	c0,0.6-0.6,1.1-1.1,1.1h-2.2c-0.6,0-1.1-0.5-1.1-1.1L-5.2,49c-0.2,0.3-0.5,0.4-0.9,0.4l0,0c-0.6,0-1.1-0.5-1.1-1.1v-6.8
	C-7.1,40.9-6.7,40.5-6.1,40.5L-6.1,40.5z"/>
<path d="M0.4,36.7c0,1.6-1.3,3-3,3s-3-1.3-3-3c0-1.6,1.3-3,3-3S0.4,35.1,0.4,36.7L0.4,36.7z"/>
</svg>
