<?xml version="1.0" encoding="utf-8"?>
<!-- Generator: Adobe Illustrator 19.0.0, SVG Export Plug-In . SVG Version: 6.00 Build 0)  -->
<svg version="1.1" id="Слой_1" xmlns="http://www.w3.org/2000/svg" xmlns:xlink="http://www.w3.org/1999/xlink" x="0px" y="0px"
	 viewBox="-41 44 16 14" style="enable-background:new -41 44 16 14;" xml:space="preserve">
<path d="M-26.2,50.4c-0.5-1.2-1.4-1.8-2.7-1.8h-0.9c0.1-0.4,0.1-0.8,0.1-1.3c0-0.3,0-0.7-0.1-0.9c-0.2-0.9-0.6-1.5-1.1-1.8
	c-0.4-0.2-0.9-0.2-1.2,0c-0.5,0.2-0.7,0.8-1.1,1.7c-0.4,0.9-0.7,1.6-1.2,2.4c-0.3,0.4-0.7,0.6-1.1,0.8l0,0h-2.8
	c-0.9,0-1.5,0.7-1.5,1.5v4.5c0,0.9,0.7,1.5,1.5,1.5h2.9c0.3,0,0.5-0.1,0.6-0.4c0.2,0,0.4,0,0.5,0c0.1,0.1,0.4,0.2,0.6,0.4l0.6,0.4
	c0.5,0.3,1.5,0.4,2.6,0.4c0.7,0,1.3,0,1.7-0.1c1.6-0.3,2.1-0.9,2.4-1.8C-26.5,54.8-25.6,51.9-26.2,50.4z M-38.7,55.4v-4.5
	c0,0,0-0.1,0.1-0.1h2.2v4.6L-38.7,55.4C-38.6,55.5-38.7,55.4-38.7,55.4z M-28.1,55.3c-0.1,0.4-0.2,0.7-1.2,0.9c-1,0.2-3,0.1-3.3-0.1
	l-0.6-0.3c-0.1-0.1-0.6-0.4-0.9-0.5c-0.1,0-0.2-0.1-0.9-0.1l0,0v-4.5c0.5-0.3,1-0.6,1.5-1.1c0.7-0.9,1-1.8,1.4-2.6
	c0.1-0.3,0.3-0.8,0.5-0.9c0.1,0.1,0.3,0.3,0.4,0.8c0,0.2,0.1,0.5,0.1,0.7c0,0.8-0.1,1.3-0.2,1.7c-0.1,0.2-0.1,0.5,0.1,0.7
	c0.1,0.2,0.4,0.3,0.6,0.3h1.8c0.8,0,1.2,0.3,1.5,0.9l0,0C-27.2,51.7-27.6,53.7-28.1,55.3z"/>
</svg>
