<?xml version="1.0" encoding="utf-8"?>
<!-- Generator: Adobe Illustrator 19.0.0, SVG Export Plug-In . SVG Version: 6.00 Build 0)  -->
<svg version="1.1" id="Layer_1" xmlns="http://www.w3.org/2000/svg" xmlns:xlink="http://www.w3.org/1999/xlink" x="0px" y="0px"
	 viewBox="-17.5 33 26 35" style="enable-background:new -17.5 33 26 35;" xml:space="preserve">
<path d="M-6.3,52.6c-0.5-0.3-1.2-0.8-1.6-1.1l-8.8-8.1c-0.4-0.3-0.8-1.1-0.4-1.6c0.3-0.4,0.6-0.8,1.4-0.8H6.8c0,0,1,0,1.5,0.8
	c0.3,0.4-0.1,1.3-0.5,1.6L-2,52.1C-2,52.1-3.8,53.6-6.3,52.6L-6.3,52.6z M-15.7,60c0,0-1.8-0.2-1.8-1.7V45.4c0-0.6,0.3-0.7,0.7-0.3
	l3.8,3.8c0.4,0.4,0.5,1.1,0.3,1.6l-2.7,6.4c-0.3,0.5-0.1,0.6,0.3,0.1l3.8-4.9c0.3-0.4,1-0.5,1.4-0.2l1.7,1.3c0.4,0.3,1.2,0.8,1.7,1
	c1.2,0.4,3.5,0.9,4.8-0.3l2.5-2.1c0.4-0.3,1.1-0.2,1.4,0.3l4.1,5.3c0.3,0.4,0.4,0.4,0.3-0.1l-2.8-6.8c-0.3-0.5-0.1-1.2,0.4-1.6
	l3.9-3.8c0.3-0.3,0.6-0.2,0.6,0.4v13c0,0-0.1,1.6-1.9,1.6H-15.7L-15.7,60z"/>
</svg>
