<?xml version="1.0" encoding="utf-8"?>
<!-- Generator: Adobe Illustrator 19.0.0, SVG Export Plug-In . SVG Version: 6.00 Build 0)  -->
<svg version="1.1" id="Слой_1" xmlns="http://www.w3.org/2000/svg" xmlns:xlink="http://www.w3.org/1999/xlink" x="0px" y="0px"
	 viewBox="-39 39 20 24" style="enable-background:new -39 39 20 24;" xml:space="preserve">
<path d="M-28.4,42c-0.3-0.5-0.8-0.7-1.4-0.7c-0.6,0-1.1,0.2-1.4,0.7c-0.3,0.3-0.4,0.9-0.4,1.6v2.3c0,0.7,0.1,1.2,0.4,1.6
	c0.3,0.5,0.8,0.7,1.4,0.7c0.6,0,1.1-0.2,1.4-0.7c0.3-0.3,0.4-0.9,0.4-1.6v-2.3C-28,42.8-28.1,42.3-28.4,42z M-29.2,46.1
	c0,0.6-0.2,0.9-0.6,0.9c-0.4,0-0.6-0.3-0.6-0.9v-2.8c0-0.6,0.2-0.9,0.6-0.9c0.4,0,0.6,0.3,0.6,0.9V46.1z"/>
<path d="M-27,41.4h1.2v4.9c0,0.3,0,0.4,0,0.5c0,0.2,0.1,0.3,0.3,0.3c0.2,0,0.5-0.2,0.8-0.6v-5.1h1.2v6.7h-1.2v-0.7
	c-0.5,0.6-0.9,0.8-1.4,0.8c-0.4,0-0.7-0.2-0.8-0.5c-0.1-0.2-0.1-0.5-0.1-1V41.4z"/>
<path d="M-34.9,39.1l1,3.5l0.9-3.5h1.4l-1.6,5.4v3.6h-1.3v-3.6c-0.1-0.6-0.4-1.6-0.8-2.8c-0.3-0.8-0.6-1.7-0.9-2.5H-34.9z"/>
<path d="M-22.3,54.2c-0.4,0-0.6,0.3-0.6,0.9v0.6h1.2v-0.6C-21.7,54.5-21.9,54.2-22.3,54.2z"/>
<path d="M-26.8,54.2c-0.2,0-0.4,0.1-0.6,0.3v4c0.2,0.2,0.4,0.3,0.6,0.3c0.3,0,0.5-0.3,0.5-0.9v-2.8C-26.3,54.5-26.5,54.2-26.8,54.2z
	"/>
<path d="M-19.4,51c-0.2-1.1-1.1-1.8-2.2-2c-2.5-0.3-5-0.3-7.4-0.3c-2.5,0-5,0-7.4,0.3c-1,0.1-1.9,0.9-2.1,2
	c-0.3,1.5-0.4,3.2-0.4,4.7c0,1.5,0,3.2,0.3,4.7c0.2,1.1,1.1,1.8,2.2,2c2.5,0.3,5,0.3,7.4,0.3c2.5,0,5,0,7.4-0.3c1-0.1,1.9-0.9,2.1-2
	c0.3-1.5,0.3-3.2,0.3-4.7C-19.1,54.2-19.1,52.5-19.4,51z M-33.3,52.2h-1.4v7.7H-36v-7.7h-1.4v-1.3h4.2V52.2z M-29.6,59.8h-1.2v-0.7
	c-0.5,0.5-0.9,0.8-1.4,0.8c-0.4,0-0.7-0.2-0.8-0.5c-0.1-0.2-0.1-0.5-0.1-1v-5.2h1.2v4.9c0,0.3,0,0.4,0,0.5c0,0.2,0.1,0.3,0.3,0.3
	c0.2,0,0.5-0.2,0.8-0.6v-5.1h1.2V59.8z M-25.1,57.8c0,0.6,0,1.1-0.1,1.3c-0.2,0.5-0.5,0.7-1,0.7c-0.4,0-0.8-0.2-1.2-0.7v0.6h-1.2
	v-8.9h1.2v2.9c0.4-0.5,0.8-0.7,1.2-0.7c0.5,0,0.8,0.3,1,0.8c0.1,0.3,0.1,0.7,0.1,1.3V57.8z M-20.5,56.7h-2.4v1.2
	c0,0.6,0.2,0.9,0.6,0.9c0.3,0,0.5-0.2,0.5-0.5c0-0.1,0-0.3,0-0.8h1.2v0.2c0,0.4,0,0.7,0,0.8c0,0.3-0.1,0.5-0.3,0.7
	c-0.3,0.5-0.8,0.7-1.5,0.7c-0.6,0-1.1-0.2-1.5-0.7c-0.3-0.3-0.4-0.9-0.4-1.6v-2.3c0-0.7,0.1-1.2,0.4-1.6c0.3-0.5,0.8-0.7,1.4-0.7
	c0.6,0,1.1,0.2,1.4,0.7c0.3,0.3,0.4,0.9,0.4,1.6V56.7z"/>
</svg>
