<?xml version="1.0" encoding="utf-8"?>
<!-- Generator: Adobe Illustrator 19.0.0, SVG Export Plug-In . SVG Version: 6.00 Build 0)  -->
<svg version="1.1" id="Слой_1" xmlns="http://www.w3.org/2000/svg" xmlns:xlink="http://www.w3.org/1999/xlink" x="0px" y="0px"
	 viewBox="-39 39 20 24" style="enable-background:new -39 39 20 24;" xml:space="preserve">
<path d="M-28.4,42c-0.3-0.5-0.8-0.7-1.4-0.7c-0.6,0-1.1,0.2-1.4,0.7c-0.3,0.3-0.4,0.9-0.4,1.6v2.3c0,0.7,0.1,1.2,0.4,1.6
	c0.3,0.5,0.8,0.7,1.4,0.7c0.6,0,1.1-0.2,1.4-0.7c0.3-0.3,0.4-0.9,0.4-1.6v-2.3C-28,42.8-28.1,42.3-28.4,42z M-29.2,46.1
	c0,0.6-0.2,0.9-0.6,0.9c-0.4,0-0.6-0.3-0.6-0.9v-2.8c0-0.6,0.2-0.9,0.6-0.9c0.4,0,0.6,0.3,0.6,0.9V46.1z"/>
<path d="M-27,41.4h1.2v5c0,0.3,0,0.4,0,0.5c0,0.2,0.1,0.3,0.3,0.3s0.5-0.2,0.8-0.6v-5.2h1.2v6.8h-1.2v-0.7c-0.5,0.6-0.9,0.8-1.4,0.8
	c-0.4,0-0.7-0.2-0.8-0.5c-0.1-0.2-0.1-0.5-0.1-1V41.4z"/>
<path d="M-35,39.1l1,3.5l0.9-3.5h1.4l-1.6,5.5v3.6h-1.3v-3.6c-0.1-0.6-0.4-1.6-0.8-2.8c-0.3-0.8-0.6-1.7-0.9-2.5h1.3V39.1z"/>
<path d="M-22.2,54.3c-0.4,0-0.6,0.3-0.6,0.9v0.6h1.2v-0.6C-21.6,54.6-21.8,54.3-22.2,54.3z"/>
<path d="M-26.8,54.3c-0.2,0-0.4,0.1-0.6,0.3v4c0.2,0.2,0.4,0.3,0.6,0.3c0.3,0,0.5-0.3,0.5-0.9v-2.8C-26.2,54.6-26.4,54.3-26.8,54.3z
	"/>
<path d="M-19.3,51.1c-0.2-1.1-1.1-1.8-2.2-2c-2.5-0.3-5.1-0.3-7.5-0.3c-2.5,0-5.1,0-7.5,0.3c-1,0.1-1.9,0.9-2.1,2
	c-0.3,1.5-0.4,3.2-0.4,4.8s0,3.2,0.3,4.8c0.2,1.1,1.1,1.8,2.2,2c2.5,0.3,5.1,0.3,7.5,0.3c2.5,0,5.1,0,7.5-0.3c1-0.1,1.9-0.9,2.1-2
	c0.3-1.5,0.3-3.2,0.3-4.8C-19,54.3-19,52.6-19.3,51.1z M-33.3,52.3h-1.4v7.8h-1.3v-7.8h-1.4V51h4.3v1.3H-33.3z M-29.6,60h-1.2v-0.7
	c-0.5,0.5-0.9,0.8-1.4,0.8c-0.4,0-0.7-0.2-0.8-0.5c-0.1-0.2-0.1-0.5-0.1-1v-5.3h1.2v5c0,0.3,0,0.4,0,0.5c0,0.2,0.1,0.3,0.3,0.3
	c0.2,0,0.5-0.2,0.8-0.6v-5.2h1.2C-29.6,53.3-29.6,60-29.6,60z M-25,58c0,0.6,0,1.1-0.1,1.3c-0.2,0.5-0.5,0.7-1,0.7
	c-0.4,0-0.8-0.2-1.2-0.7v0.6h-1.2v-9h1.2v2.9c0.4-0.5,0.8-0.7,1.2-0.7c0.5,0,0.8,0.3,1,0.8c0.1,0.3,0.1,0.7,0.1,1.3V58z M-20.4,56.9
	h-2.4v1.2c0,0.6,0.2,0.9,0.6,0.9c0.3,0,0.5-0.2,0.5-0.5c0-0.1,0-0.3,0-0.8h1.2v0.2c0,0.4,0,0.7,0,0.8c0,0.3-0.1,0.5-0.3,0.7
	c-0.3,0.5-0.8,0.7-1.5,0.7c-0.6,0-1.1-0.2-1.5-0.7c-0.3-0.3-0.4-0.9-0.4-1.6v-2.3c0-0.7,0.1-1.2,0.4-1.6c0.3-0.5,0.8-0.7,1.4-0.7
	s1.1,0.2,1.4,0.7c0.3,0.3,0.4,0.9,0.4,1.6v1.4H-20.4z"/>
</svg>
