<?xml version="1.0" encoding="utf-8"?>
<!-- Generator: Adobe Illustrator 19.0.0, SVG Export Plug-In . SVG Version: 6.00 Build 0)  -->
<svg version="1.1" id="Слой_1" xmlns="http://www.w3.org/2000/svg" xmlns:xlink="http://www.w3.org/1999/xlink" x="0px" y="0px"
	 viewBox="-41 39.2 20 24" style="enable-background:new -41 39.2 20 24;" xml:space="preserve">
<path id="Shape_16_copy_3" d="M-28.5,44.5c-1.5,0.4-2.6,1.9-2.5,3.5v0.6l-0.7-0.1c-2.3-0.3-4.5-1.2-6.2-2.8l-0.8-0.8l-0.2,0.6
	c-0.5,1.2-0.2,2.6,0.8,3.5c0.5,0.5,0.4,0.6-0.5,0.3c-0.2-0.1-0.4-0.1-0.6-0.1c0.1,1.4,0.9,2.6,2.2,3.1l0.6,0.3h-0.8
	c-0.7,0-0.8,0-0.7,0.3c0.5,1,1.4,1.7,2.4,2l0.8,0.3l-0.7,0.4c-1.1,0.6-2.3,0.9-3.5,0.9c-0.4,0-0.7,0-1.1,0.1
	c0.8,0.5,1.6,0.8,2.5,1.1c2.8,0.8,5.9,0.5,8.5-0.9c1.9-1.1,3.4-2.7,4.3-4.7c0.5-1.1,0.8-2.4,0.9-3.6c0-0.6,0-0.6,0.8-1.3
	c0.3-0.3,0.6-0.6,0.9-0.9c0.1-0.2,0.1-0.2-0.5,0c-1.1,0.4-1.3,0.3-0.7-0.2c0.4-0.4,0.7-0.8,0.9-1.3c-0.1,0-0.3,0-0.4,0.1
	c-0.4,0.2-0.7,0.3-1.1,0.4l-0.7,0.2l-0.6-0.4c-0.3-0.2-0.7-0.4-1.1-0.5C-26.9,44.3-27.7,44.3-28.5,44.5z"/>
</svg>
