<?xml version="1.0" encoding="utf-8"?>
<!-- Generator: Adobe Illustrator 19.0.0, SVG Export Plug-In . SVG Version: 6.00 Build 0)  -->
<svg version="1.1" id="Layer_1" xmlns="http://www.w3.org/2000/svg" xmlns:xlink="http://www.w3.org/1999/xlink" x="0px" y="0px"
	 viewBox="-38 33 22 35" style="enable-background:new -38 33 22 35;" xml:space="preserve">
<path d="M-31.7,67.2c0,0.4,0.4,0.8,0.8,0.8h11.5c0.4,0,0.8-0.4,0.8-0.8v-1.8h-13.1V67.2z"/>
<path d="M-16.5,53.1c0-0.8-0.5-1.4-1.2-1.7c-2.2-0.7-6.5-2.1-7.2-2.2c-0.2,0-0.4-0.1-0.6-0.1c-0.5,0-1,0.1-1.3,0.4l0,0l0,0l-1-9.8
	c-0.1-0.8-0.7-1.2-1.4-1.2c-0.8,0-1.6,0.5-1.6,1.4v15.8c0,0.2-0.1,0.3-0.3,0.4l0,0c0,0,0,0-0.1,0l0,0c-0.5,0-1.7,0-2.9-1.7
	c-0.2-0.2-0.3-0.4-0.4-0.6c-0.4-0.6-0.9-0.8-1.5-0.8c-0.9,0-1.7,0.8-1.5,1.9c0.3,1.7,2.1,5.6,5.8,9.3h13.1l1.3-2.2
	c0.5-0.8,0.7-1.7,0.7-2.6L-16.5,53.1z"/>
<path d="M-31.9,45.6v-5.7c0-0.7,0.2-1.3,0.7-1.7c0.5-0.5,1.2-0.8,2-0.8c0.6,0,1.2,0.2,1.6,0.5c0.5,0.4,0.9,1,0.9,1.7
	c0,0,0.3,3,0.6,5.7c1.9-1.1,3.2-3.2,3.2-5.7c0-3.6-2.9-6.6-6.6-6.6c-3.5,0-6.5,2.9-6.5,6.6C-36,42.3-34.3,44.6-31.9,45.6L-31.9,45.6
	z"/>
</svg>
