<?xml version="1.0" encoding="utf-8"?>
<!-- Generator: Adobe Illustrator 19.0.0, SVG Export Plug-In . SVG Version: 6.00 Build 0)  -->
<svg version="1.1" id="Слой_1" xmlns="http://www.w3.org/2000/svg" xmlns:xlink="http://www.w3.org/1999/xlink" x="0px" y="0px"
	 viewBox="-41 46 17 10" style="enable-background:new -41 46 17 10;" xml:space="preserve">
<path d="M-31.9,49.8c-0.1,0.2-0.3,0.4-0.5,0.4s-0.5-0.2-0.5-0.4c-0.5,0.2-0.8,0.7-0.8,1.2c0,0.7,0.6,1.3,1.3,1.3s1.3-0.6,1.3-1.3
	C-31.1,50.5-31.4,50-31.9,49.8L-31.9,49.8z"/>
<path d="M-24.1,50.8c0,0-0.9-1.1-2.4-2.2c-2-1.5-4-2.2-5.9-2.2c-1.9,0-3.9,0.8-5.9,2.2c-1.5,1.1-2.4,2.2-2.4,2.2
	c-0.1,0.1-0.1,0.3,0,0.5c0,0,0.9,1.1,2.4,2.2c2,1.5,4,2.2,5.9,2.2c1.9,0,3.9-0.8,5.9-2.2c1.5-1.1,2.4-2.2,2.4-2.2
	C-24,51.1-24,50.9-24.1,50.8L-24.1,50.8z M-32.4,53.9c-1.6,0-2.9-1.3-2.9-2.9s1.3-2.9,2.9-2.9c1.6,0,2.9,1.3,2.9,2.9
	S-30.8,53.9-32.4,53.9L-32.4,53.9z"/>
</svg>
