<?xml version="1.0" encoding="utf-8"?>
<!-- Generator: Adobe Illustrator 19.0.0, SVG Export Plug-In . SVG Version: 6.00 Build 0)  -->
<svg version="1.1" id="Слой_1" xmlns="http://www.w3.org/2000/svg" xmlns:xlink="http://www.w3.org/1999/xlink" x="0px" y="0px"
	 viewBox="-42.5 44 16 14" style="enable-background:new -42.5 44 16 14;" xml:space="preserve">
<path d="M-34,49.8c-0.1,0.2-0.3,0.3-0.4,0.3s-0.4-0.2-0.4-0.3c-0.4,0.2-0.8,0.6-0.8,1.2c0,0.6,0.5,1.3,1.3,1.3
	c0.7,0,1.3-0.5,1.3-1.3C-33.1,50.5-33.4,49.9-34,49.8L-34,49.8z"/>
<path d="M-26.6,50.8c0,0-1-1.1-2.3-2c-1.9-1.5-3.7-2-5.6-2c-1.8,0-3.7,0.8-5.6,2c-1.5,1.1-2.3,2-2.3,2c-0.1,0.1-0.1,0.3,0,0.4
	c0,0,1,1.1,2.3,2c1.9,1.5,3.7,2,5.6,2s3.7-0.8,5.6-2c1.5-1.1,2.3-2,2.3-2C-26.5,51-26.5,50.9-26.6,50.8L-26.6,50.8z M-34.4,53.7
	c-1.5,0-2.7-1.3-2.7-2.7s1.3-2.7,2.7-2.7s2.7,1.3,2.7,2.7S-32.9,53.7-34.4,53.7L-34.4,53.7z"/>
</svg>
