<?xml version="1.0" encoding="utf-8"?>
<!-- Generator: Adobe Illustrator 19.0.0, SVG Export Plug-In . SVG Version: 6.00 Build 0)  -->
<svg version="1.1" id="Слой_1" xmlns="http://www.w3.org/2000/svg" xmlns:xlink="http://www.w3.org/1999/xlink" x="0px" y="0px"
	 viewBox="-39 41 21 19" style="enable-background:new -39 41 21 19;" xml:space="preserve">
<path d="M-22.3,45.7l-2,0.6l4.4,4.1l1.4-5.9l-2.2,0.7c-1.7-2.6-4.7-4.2-7.8-4.2l0,0l0,0l0,0c-1.6,0-3.2,0.4-4.6,1.2
	c-1.4,0.8-2.5,1.9-3.3,3.2l1.3,0.8c1.4-2.3,3.9-3.7,6.7-3.7l0,0l0,0l0,0C-26,42.6-23.8,43.7-22.3,45.7z"/>
<path d="M-23.5,58.5c1.5-0.9,2.6-2.2,3.4-3.7l-1.4-0.7c-1.3,2.7-4,4.3-7,4.3l0,0c-2.5,0-4.8-1.2-6.3-3.1l2.1-0.6l-4.4-4.1l-1.4,5.9
	l2.2-0.7c1.7,2.6,4.7,4.2,7.8,4.2l0,0C-26.8,59.9-25,59.4-23.5,58.5z"/>
</svg>
