<?xml version="1.0" encoding="utf-8"?>
<!-- Generator: Adobe Illustrator 19.0.0, SVG Export Plug-In . SVG Version: 6.00 Build 0)  -->
<svg version="1.1" id="Слой_1" xmlns="http://www.w3.org/2000/svg" xmlns:xlink="http://www.w3.org/1999/xlink" x="0px" y="0px"
	 viewBox="-40.5 43.5 16 14" style="enable-background:new -40.5 43.5 16 14;" xml:space="preserve">
<path d="M-25.1,53c0.4-0.6,0.6-1.3,0.6-1.9c0-0.7-0.2-1.4-0.7-2c-0.5-0.7-1.1-1.2-1.8-1.6c0.1,0.5,0.2,0.9,0.2,1.4
	c0,0.8-0.2,1.6-0.6,2.2c-0.4,0.7-1,1.4-1.7,1.8c-0.7,0.5-1.5,0.9-2.3,1.2s-1.7,0.4-2.7,0.4c-0.2,0-0.5,0-0.8,0
	c1.2,0.8,2.6,1.2,4.2,1.2c0.5,0,1.1,0,1.6-0.1c0.8,0.5,1.6,0.9,2.4,1.2c0.2,0.1,0.4,0.1,0.7,0.1c0.1,0,0.2,0,0.3-0.1
	c0.2-0.2,0-0.6-0.1-0.7c-0.2-0.3-0.7-1.2-0.8-1.4C-26.1,54.2-25.5,53.6-25.1,53L-25.1,53z"/>
<path d="M-28.6,46.4c-0.6-0.7-1.4-1.3-2.3-1.6c-1-0.4-2-0.6-3.2-0.6c-1.2,0-2.2,0.2-3.2,0.6c-1,0.4-1.7,1-2.3,1.6s-0.9,1.6-0.9,2.3
	c0,0.7,0.2,1.5,0.7,2c0.4,0.6,1,1.2,1.6,1.6c0,0.1-0.3,0.6-0.5,0.8c-0.2,0.3-0.8,0.8-0.7,1.1c0,0.1,0.1,0.3,0.4,0.4
	c0.3,0.1,0.7,0,0.8-0.1c0.7-0.1,1.7-0.6,2.4-1.2c0.5,0.1,1.1,0.1,1.6,0.1c1.2,0,2.2-0.2,3.2-0.6c1-0.4,1.7-1,2.3-1.6
	c0.6-0.7,0.9-1.6,0.9-2.3C-27.7,47.9-28,47.1-28.6,46.4z M-35.5,52l-0.5-0.1c0,0-0.5,0.4-0.6,0.4l0.2-0.5l-1-0.6
	c-0.6-0.3-1-0.7-1.3-1.2c-0.3-0.4-0.5-0.9-0.5-1.4c0-0.6,0.2-1.1,0.7-1.6c0.5-0.5,1.1-0.9,1.8-1.2c0.8-0.3,1.6-0.5,2.5-0.5
	c0.9,0,1.7,0.2,2.5,0.5s1.4,0.7,1.8,1.2c0.5,0.5,0.7,1.1,0.7,1.6c0,0.6-0.2,1.1-0.7,1.6c-0.5,0.5-1.1,0.9-1.8,1.2
	C-32.7,52.1-34,52.1-35.5,52z"/>
</svg>
