<?xml version="1.0" encoding="utf-8"?>
<!-- Generator: Adobe Illustrator 19.0.0, SVG Export Plug-In . SVG Version: 6.00 Build 0)  -->
<svg version="1.1" id="Слой_1" xmlns="http://www.w3.org/2000/svg" xmlns:xlink="http://www.w3.org/1999/xlink" x="0px" y="0px"
	 viewBox="-41 44 16 14" style="enable-background:new -41 44 16 14;" xml:space="preserve">
<path d="M-25.8,50.4c-0.5-1.3-1.5-1.9-2.9-1.9h-0.9c0.1-0.4,0.1-0.8,0.1-1.4c0-0.3,0-0.7-0.1-1c-0.2-0.9-0.6-1.6-1.2-1.9
	c-0.4-0.2-0.9-0.2-1.3,0c-0.5,0.2-0.7,0.8-1.2,1.8c-0.4,0.9-0.7,1.7-1.3,2.5c-0.3,0.4-0.7,0.6-1.2,0.8l0,0h-3
	c-0.9,0-1.6,0.7-1.6,1.6v4.8c0,0.9,0.7,1.6,1.6,1.6h3.1c0.3,0,0.5-0.1,0.6-0.4c0.2,0,0.4,0,0.5,0c0.1,0.1,0.4,0.2,0.6,0.4l0.6,0.4
	c0.5,0.3,1.6,0.4,2.7,0.4c0.7,0,1.4,0,1.8-0.1c1.7-0.3,2.2-1,2.5-1.9C-26.1,55.1-25.2,52-25.8,50.4z M-39,55.7v-4.8
	c0,0,0-0.1,0.1-0.1h2.3v4.9L-39,55.7C-38.9,55.8-39,55.7-39,55.7z M-27.8,55.6c-0.1,0.4-0.2,0.7-1.3,0.9c-1.1,0.2-3.2,0.1-3.5-0.1
	l-0.6-0.3c-0.1-0.1-0.6-0.4-0.9-0.5c-0.1,0-0.2-0.1-0.9-0.1l0,0v-4.8c0.5-0.3,1.1-0.6,1.6-1.2c0.7-0.9,1.1-1.9,1.5-2.8
	c0.1-0.3,0.3-0.8,0.5-1c0.1,0.1,0.3,0.3,0.4,0.8c0,0.2,0.1,0.5,0.1,0.7c0,0.8-0.1,1.4-0.2,1.8c-0.1,0.2-0.1,0.5,0.1,0.7
	c0.1,0.2,0.4,0.3,0.6,0.3h1.9c0.8,0,1.3,0.3,1.6,1l0,0C-26.9,51.8-27.3,53.9-27.8,55.6z"/>
</svg>
