<?xml version="1.0" encoding="utf-8"?>
<!-- Generator: Adobe Illustrator 19.0.0, SVG Export Plug-In . SVG Version: 6.00 Build 0)  -->
<svg version="1.1" id="Layer_1" xmlns="http://www.w3.org/2000/svg" xmlns:xlink="http://www.w3.org/1999/xlink" x="0px" y="0px"
	 viewBox="-13 15 72 72" style="enable-background:new -13 15 72 72;" xml:space="preserve">
<style type="text/css">
	.st0{fill:#007848;}
</style>
<g>
	<path class="st0" d="M22.8,57.6c0-1.6,0.5-3,1.3-4.2h-8.4c-0.4,0-0.8-0.4-0.8-0.8c0-0.4,0.4-0.8,0.8-0.8h9.9c1.3-1,2.8-1.6,4.5-1.6
		c0.6,0,1.2,0.1,1.7,0.2V37.9c0-0.9-0.8-1.7-1.7-1.7h-12v0.6c0,0.1,0,0.1,0,0.2v4.6c0,1.3-1.1,2.4-2.4,2.4h-4.6H11h-0.6v17.5
		c0,0.9,0.8,1.7,1.7,1.7h13.1C23.8,61.8,22.8,59.8,22.8,57.6L22.8,57.6z M15.7,47.5h11.7c0.4,0,0.8,0.4,0.8,0.8
		c0,0.4-0.4,0.8-0.8,0.8H15.7c-0.4,0-0.8-0.4-0.8-0.8C14.9,47.9,15.3,47.5,15.7,47.5L15.7,47.5z M21.6,57.5h-5.9
		c-0.4,0-0.8-0.4-0.8-0.8c0-0.4,0.4-0.8,0.8-0.8h5.9c0.4,0,0.8,0.4,0.8,0.8C22.4,57.1,22,57.5,21.6,57.5L21.6,57.5z"/>
	<path class="st0" d="M11.3,43h4.6c0.8,0,1.4-0.6,1.4-1.4V37c0-0.4-0.3-0.7-0.7-0.7c-0.2,0-0.3,0.1-0.5,0.2l-5.3,5.3
		C10.4,42.2,10.7,43,11.3,43L11.3,43z"/>
	<path class="st0" d="M36.2,61.9l-0.7-0.7c0.7-1,1.1-2.3,1.1-3.6c0-2.6-1.5-4.8-3.7-5.8c-0.2-0.1-0.3-0.1-0.5-0.2
		c-0.2-0.1-0.3-0.1-0.5-0.2c-0.5-0.2-1.1-0.2-1.7-0.2c-1,0-1.9,0.2-2.7,0.6c-0.8,0.4-1.5,0.9-2.1,1.6c-1,1.1-1.6,2.6-1.6,4.2
		c0,2.3,1.3,4.4,3.2,5.5c0.3,0.2,0.6,0.3,1,0.5c0.7,0.3,1.5,0.4,2.3,0.4c0.3,0,0.5,0,0.8,0c1-0.1,2-0.5,2.8-1.1l0.3,0.3l2.4,2.4
		c0.2,0.2,0.5,0.3,0.8,0.3s0.6-0.1,0.8-0.3c0.5-0.5,0.5-1.2,0-1.7L36.2,61.9z M30.2,53.6c0.6,0,1.2,0.1,1.7,0.4
		c0.2,0.1,0.3,0.2,0.5,0.3s0.3,0.2,0.5,0.4c0.8,0.7,1.4,1.8,1.4,3s-0.5,2.3-1.4,3c-0.1,0.1-0.3,0.3-0.5,0.4
		c-0.2,0.1-0.3,0.2-0.5,0.3c-0.5,0.2-1.1,0.4-1.7,0.4c-2.2,0-4-1.8-4-4C26.1,55.4,27.9,53.6,30.2,53.6L30.2,53.6z"/>
</g>
</svg>
