<?xml version="1.0" encoding="utf-8"?>
<!-- Generator: Adobe Illustrator 19.0.0, SVG Export Plug-In . SVG Version: 6.00 Build 0)  -->
<svg version="1.1" id="Layer_1" xmlns="http://www.w3.org/2000/svg" xmlns:xlink="http://www.w3.org/1999/xlink" x="0px" y="0px"
	 viewBox="-13 15 72 72" style="enable-background:new -13 15 72 72;" xml:space="preserve">
<style type="text/css">
	.st0{fill:#007848;}
</style>
<path class="st0" d="M38.2,50.7c-0.8-0.8-1.6-1.3-2.5-1.8v-2.8c0-0.7-0.6-1.3-1.3-1.3H32v-2c0.4-0.1,0.7-0.3,0.9-0.6
	c0.3-0.3,0.4-0.8,0.3-1.2L33,39.6c-0.1-0.9-1-1.5-1.9-1.3c-0.3,0.1-0.5,0.2-0.8,0.4l-1.6-1l0,0c0.1-0.4,0.1-0.9-0.1-1.3
	c-0.2-0.4-0.6-0.7-1-0.8l-1.5-0.4c-0.8-0.2-1.7,0.3-2,1.2c0,0.1,0,0.2,0,0.2l-1.5,0.2c-0.4-0.8-1.4-1.2-2.1-0.9l-1.4,0.6
	c-0.8,0.3-1.1,1.3-0.8,2.1l-1.1,1.2l-1.9-1.3c-0.6-0.4-1.4-0.3-1.8,0.3l-1.8,2.5c-0.5-0.1-1-0.1-1.5-0.1c-5.1,0-9.3,4.2-9.3,9.3
	c0,1.8,0.5,3.4,1.4,4.8L4.6,53c-0.3-0.8-0.5-1.6-0.5-2.5c0-3.4,2.8-6.2,6.2-6.2s6.2,2.8,6.2,6.2s-2.8,6.2-6.2,6.2
	c-1.4,0-2.6-0.4-3.6-1.2l-2.2,2.2c1.6,1.3,3.6,2.1,5.8,2.1c5.1,0,9.3-4.2,9.3-9.3c0-1.6-0.4-3.2-1.2-4.5l1.8-2.5
	c0.4-0.6,0.3-1.4-0.3-1.8L18,40.5l0.9-1c0.3,0.2,0.6,0.4,1,0.4c0.2,0,0.4,0,0.6-0.1l1.4-0.6c0.5-0.2,0.8-0.8,0.9-1.3l1.5-0.2
	c0,0.1,0,0.1,0,0.1c0.2,0.4,0.5,0.6,0.9,0.7l1.5,0.4c0.1,0,0.3,0.1,0.4,0.1c0.4,0,0.8-0.2,1.1-0.5l1.5,0.9c-0.1,0.2-0.1,0.5-0.1,0.7
	l0.2,1.5c0.1,0.6,0.6,1.1,1.2,1.3v2h-2.2c-0.7,0-1.3,0.6-1.3,1.3V49c-0.9,0.4-1.7,1-2.5,1.8c-3.6,3.6-3.6,9.5,0,13.2
	c1.2,1.2,2.8,2,4.4,2.4v-3.2c-0.8-0.3-1.5-0.8-2.2-1.4c-2.4-2.4-2.4-6.4,0-8.8c2.4-2.4,6.4-2.4,8.8,0c2.4,2.4,2.4,6.4,0,8.8
	c-1,1-2.1,1.5-3.4,1.7v3.1c2-0.2,4-1.1,5.6-2.6C41.9,60.3,41.9,54.4,38.2,50.7z M15.3,42.1c0.2-0.3,0.5-0.3,0.7-0.3l0.7-1l0.6,0.4
	l-0.7,1c0.1,0.3,0.2,0.5,0,0.8c-0.1,0.2-0.3,0.3-0.6,0.3c-0.3-0.2-0.5-0.4-0.8-0.6C15.2,42.6,15.2,42.3,15.3,42.1z M21.5,38.3
	L20.2,39c-0.2,0.1-0.5,0.1-0.7-0.1l0.3-0.3c0.2-0.2,0.2-0.5,0-0.6c-0.2-0.2-0.5-0.2-0.6,0l0,0c0-0.2,0.2-0.4,0.4-0.5l1.4-0.6
	c0.1-0.1,0.2-0.1,0.3-0.1c0.2,0,0.4,0.1,0.6,0.3h-0.2c-0.3,0-0.4,0.3-0.4,0.5s0.2,0.4,0.5,0.4c0,0,0,0,0.1,0h0.2
	C21.8,38.1,21.7,38.3,21.5,38.3z M27.8,37.1L27.8,37.1c-0.3-0.3-0.6-0.2-0.8,0.1c-0.2,0.2-0.1,0.5,0.2,0.7l0.2,0.1
	c-0.2,0-0.3,0-0.5,0l-1.5-0.4c-0.1,0-0.2-0.1-0.2-0.2h0.4c0.3,0,0.4-0.3,0.4-0.5c0-0.3-0.3-0.5-0.5-0.4l-0.4,0.1
	c0.1-0.3,0.4-0.5,0.7-0.5c0,0,0.1,0,0.2,0l1.5,0.4c0.2,0.1,0.3,0.2,0.4,0.4C27.9,36.8,27.8,37,27.8,37.1z M30.7,41.4L30.5,40v-0.1
	l0.1,0.1c0.1,0.1,0.2,0.1,0.3,0.1c0.2,0,0.3-0.1,0.4-0.2c0.1-0.2,0.1-0.5-0.2-0.7h0.1c0.1,0,0.1,0,0.2,0c0.4,0,0.7,0.3,0.8,0.6
	l0.2,1.5c0,0.2,0,0.4-0.2,0.5c-0.1,0.1-0.2,0.1-0.2,0.1v-0.3c0-0.3-0.2-0.5-0.5-0.5S31,41.3,31,41.6V42
	C30.9,41.8,30.8,41.7,30.7,41.4z M30.9,47.7c0-0.3,0.2-0.5,0.5-0.6v-1.3H32v1.3c0.3,0.1,0.4,0.3,0.4,0.6c0,0.1,0,0.2-0.1,0.3
	c-0.5,0-1,0-1.5,0C30.9,47.9,30.9,47.8,30.9,47.7z"/>
</svg>
