<?xml version="1.0" encoding="utf-8"?>
<!-- Generator: Adobe Illustrator 19.0.0, SVG Export Plug-In . SVG Version: 6.00 Build 0)  -->
<svg version="1.1" id="Layer_1" xmlns="http://www.w3.org/2000/svg" xmlns:xlink="http://www.w3.org/1999/xlink" x="0px" y="0px"
	 viewBox="-13 15 72 72" style="enable-background:new -13 15 72 72;" xml:space="preserve">
<style type="text/css">
	.st0{fill:#007848;}
</style>
<path class="st0" d="M34.2,59.5c0.6,1.1,3.1,7,3.1,7.8c0,4.6-6.2,4.6-6.2,0C31.2,66.4,33.7,60.3,34.2,59.5L34.2,59.5z M37.9,56.3
	v-3.6c0-2.3-2-4.2-4.8-4.2h-6.3v-2c0-0.6-0.5-1-1-1h-2.5v-1.3c0.2-0.1,0.4-0.3,0.5-0.5h5.3c0.4,0.4,0.9,0.8,1.5,0.8
	c1.1,0,1.9-0.9,1.9-1.9c0-1.1-0.9-1.9-1.9-1.9c-0.6,0-1.2,0.3-1.5,0.8h-5.2c-0.3-0.5-0.9-0.8-1.5-0.8s-1.2,0.3-1.5,0.8H15
	c-0.3-0.5-0.9-0.8-1.5-0.8c-1.1,0-1.9,0.8-1.9,1.9c0,1.1,0.9,1.9,1.9,1.9c0.6,0,1.1-0.3,1.5-0.8h5.8c0.2,0.2,0.3,0.4,0.6,0.5v1.3
	h-2.6c-0.6,0-1,0.5-1,1v2H10v6.2h8.6c0.8,1.7,2,2.5,3.6,2.5c1.7,0,3.1-0.8,3.9-2.5h3.1c0.9,0,1.3,0.6,1.4,1.7
	c-0.3,0.2-0.5,0.5-0.5,0.8c0,0.6,0.5,1,1,1h6.4c0.6,0,1-0.5,1-1C38.6,56.8,38.3,56.5,37.9,56.3L37.9,56.3z"/>
</svg>
